<?xml version="1.0" encoding="UTF-8"?><svg id="logosandtypes_com" xmlns="http://www.w3.org/2000/svg" viewBox="0 0 150 150"><defs><style>.cls-1{fill:#122f62;}.cls-2{fill:none;}</style></defs><path class="cls-2" d="M0,0H150V150H0V0Z"/><path class="cls-1" d="M107.35,115.84l10.18,10.18c-11.54,9.59-26.37,15.34-42.54,15.34-36.81,0-66.66-29.85-66.66-66.66,0-16.17,5.76-30.99,15.34-42.54l10.18,10.18c-7.01,8.9-11.2,20.14-11.2,32.35,0,28.9,23.43,52.33,52.33,52.33,12.21,0,23.45-4.19,32.35-11.19Z"/><path class="cls-1" d="M113.98,74.71c0,1.96-.14,3.89-.43,5.77h-41.56l-11.71-12.08h38.75c-5.57-21.16-34.14-25.32-45.44-6.31-12.76,22.22,11.8,46.78,34.03,34.03l10.19,10.19c-25.27,18.55-61.98,.05-61.78-31.6,.03-13.02,6.29-24.6,16.57-31.89,25.59-18.18,61.57,.68,61.38,31.89Z"/><path class="cls-1" d="M141.66,74.71c0,16-5.63,30.67-15.02,42.15l-10.2-10.2c6.83-8.84,10.89-19.92,10.89-31.95,0-28.89-23.43-52.32-52.32-52.32-12.03,0-23.12,4.06-31.95,10.89l-10.2-10.2c11.48-9.39,26.15-15.02,42.15-15.02,36.81,0,66.65,29.85,66.65,66.65Z"/></svg>